<svg xmlns="http://www.w3.org/2000/svg" width="1600" height="1000" viewBox="0 0 1600 1000"><rect width="1600" height="1000" rx="34" fill="#eef5f6"/><rect x="70" y="60" width="1460" height="880" rx="28" fill="#ffffff"/><circle cx="128" cy="116" r="22" fill="#fd4402"/><path d="M117 116l9 9 17-21" fill="none" stroke="#fff" stroke-width="7" stroke-linecap="round" stroke-linejoin="round"/><text x="165" y="128" font-family="Arial" font-size="34" font-weight="700" fill="#153347">CAREPATH</text><text x="1030" y="126" font-family="Arial" font-size="22" fill="#486577">SUPPORTS</text><text x="1195" y="126" font-family="Arial" font-size="22" fill="#486577">ABOUT</text><rect x="1340" y="88" width="130" height="54" rx="27" fill="#153347"/><text x="1370" y="123" font-family="Arial" font-size="20" font-weight="700" fill="#fff">ENQUIRE</text><text x="130" y="315" font-family="Arial" font-size="84" font-weight="800" fill="#153347">SUPPORT THAT</text><text x="130" y="410" font-family="Arial" font-size="84" font-weight="800" fill="#fd4402">MOVES WITH YOU.</text><text x="135" y="495" font-family="Arial" font-size="30" fill="#486577">Person-centred NDIS support built around choice, confidence and connection.</text><rect x="130" y="560" width="255" height="68" rx="34" fill="#fd4402"/><text x="176" y="603" font-family="Arial" font-size="22" font-weight="700" fill="#fff">FIND SUPPORT</text><rect x="930" y="220" width="440" height="490" rx="36" fill="#d9eff2"/><circle cx="1150" cy="390" r="118" fill="#fd4402" opacity=".88"/><circle cx="1150" cy="355" r="44" fill="#fff"/><path d="M1062 520c25-82 151-82 176 0" fill="#fff"/><path d="M1010 575c85 75 195 75 280 0" fill="none" stroke="#153347" stroke-width="22" stroke-linecap="round"/><rect x="130" y="760" width="390" height="120" rx="22" fill="#eef5f6"/><text x="165" y="810" font-family="Arial" font-size="21" fill="#486577">DAILY LIVING</text><text x="165" y="852" font-family="Arial" font-size="31" font-weight="700" fill="#153347">More independence</text><rect x="550" y="760" width="390" height="120" rx="22" fill="#eef5f6"/><text x="585" y="810" font-family="Arial" font-size="21" fill="#486577">COMMUNITY</text><text x="585" y="852" font-family="Arial" font-size="31" font-weight="700" fill="#153347">More connection</text><rect x="970" y="760" width="400" height="120" rx="22" fill="#eef5f6"/><text x="1005" y="810" font-family="Arial" font-size="21" fill="#486577">PLAN SUPPORT</text><text x="1005" y="852" font-family="Arial" font-size="31" font-weight="700" fill="#153347">Clear next steps</text></svg>