<svg xmlns="http://www.w3.org/2000/svg" width="1600" height="1000" viewBox="0 0 1600 1000"><defs><linearGradient id="s" x1="0" x2="1"><stop stop-color="#08111f"/><stop offset="1" stop-color="#16263f"/></linearGradient></defs><rect width="1600" height="1000" rx="34" fill="#07101c"/><rect x="70" y="60" width="1460" height="880" rx="28" fill="url(#s)"/><text x="130" y="128" font-family="Arial" font-size="34" font-weight="800" fill="#fff">SENTINEL</text><path d="M330 92l34 12v28c0 25-14 45-34 57-20-12-34-32-34-57v-28z" fill="#fd4402"/><text x="1030" y="126" font-family="Arial" font-size="22" fill="#99a9bf">SERVICES</text><text x="1190" y="126" font-family="Arial" font-size="22" fill="#99a9bf">INDUSTRIES</text><rect x="1350" y="88" width="120" height="54" rx="27" fill="#fd4402"/><text x="1384" y="123" font-family="Arial" font-size="20" font-weight="700" fill="#fff">CONTACT</text><text x="130" y="315" font-family="Arial" font-size="88" font-weight="800" fill="#fff">PROTECT WHAT</text><text x="130" y="415" font-family="Arial" font-size="88" font-weight="800" fill="#fd4402">MATTERS.</text><text x="135" y="495" font-family="Arial" font-size="30" fill="#99a9bf">Trusted security solutions for people, property and operations.</text><rect x="130" y="560" width="245" height="68" rx="34" fill="#fff"/><text x="171" y="603" font-family="Arial" font-size="22" font-weight="700" fill="#08111f">REQUEST A PLAN</text><rect x="930" y="215" width="450" height="500" rx="28" fill="#0e1a2d" stroke="#2e4665"/><path d="M1155 275l145 52v118c0 107-57 190-145 242-88-52-145-135-145-242V327z" fill="#fd4402" opacity=".92"/><path d="M1090 450l48 48 90-106" fill="none" stroke="#fff" stroke-width="30" stroke-linecap="round" stroke-linejoin="round"/><rect x="130" y="760" width="390" height="115" rx="22" fill="#0e1a2d" stroke="#2e4665"/><text x="165" y="807" font-family="Arial" font-size="20" fill="#99a9bf">COMMERCIAL</text><text x="165" y="850" font-family="Arial" font-size="31" font-weight="700" fill="#fff">Stronger credibility</text><rect x="565" y="760" width="390" height="115" rx="22" fill="#0e1a2d" stroke="#2e4665"/><text x="600" y="807" font-family="Arial" font-size="20" fill="#99a9bf">LOCAL SEARCH</text><text x="600" y="850" font-family="Arial" font-size="31" font-weight="700" fill="#fff">More enquiries</text><rect x="1000" y="760" width="400" height="115" rx="22" fill="#0e1a2d" stroke="#2e4665"/><text x="1035" y="807" font-family="Arial" font-size="20" fill="#99a9bf">B2B CAMPAIGNS</text><text x="1035" y="850" font-family="Arial" font-size="31" font-weight="700" fill="#fff">Better leads</text></svg>