<svg xmlns="http://www.w3.org/2000/svg" width="1600" height="1000" viewBox="0 0 1600 1000"><defs><linearGradient id="g" x1="0" x2="1"><stop stop-color="#111827"/><stop offset="1" stop-color="#253046"/></linearGradient></defs><rect width="1600" height="1000" rx="34" fill="#f4f1eb"/><rect x="70" y="60" width="1460" height="880" rx="28" fill="url(#g)"/><circle cx="132" cy="118" r="12" fill="#fd4402"/><text x="165" y="128" font-family="Arial,Helvetica,sans-serif" font-size="34" font-weight="700" fill="#fff">NORTHLINE TRADES</text><text x="1030" y="128" font-family="Arial" font-size="24" fill="#cbd5e1">SERVICES</text><text x="1195" y="128" font-family="Arial" font-size="24" fill="#cbd5e1">PROJECTS</text><rect x="1360" y="88" width="120" height="54" rx="27" fill="#fd4402"/><text x="1395" y="123" font-family="Arial" font-size="20" font-weight="700" fill="#fff">CALL</text><text x="130" y="315" font-family="Arial" font-size="96" font-weight="800" fill="#fff">GET THE JOB</text><text x="130" y="415" font-family="Arial" font-size="96" font-weight="800" fill="#fd4402">DONE RIGHT.</text><text x="135" y="485" font-family="Arial" font-size="30" fill="#cbd5e1">Electrical, plumbing and maintenance services across Darwin.</text><rect x="130" y="545" width="245" height="70" rx="35" fill="#fd4402"/><text x="184" y="589" font-family="Arial" font-size="24" font-weight="700" fill="#fff">BOOK A QUOTE</text><rect x="980" y="220" width="420" height="500" rx="24" fill="#e5e7eb"/><rect x="1030" y="270" width="320" height="180" rx="18" fill="#fd4402"/><path d="M1105 420h170l-20-90h-130z" fill="#111827"/><circle cx="1150" cy="448" r="22" fill="#111827"/><circle cx="1235" cy="448" r="22" fill="#111827"/><rect x="1030" y="495" width="320" height="34" rx="17" fill="#9ca3af"/><rect x="1030" y="550" width="235" height="22" rx="11" fill="#c4c7cc"/><rect x="1030" y="590" width="285" height="22" rx="11" fill="#c4c7cc"/><rect x="130" y="760" width="1270" height="110" rx="20" fill="#fff" opacity=".08"/><text x="180" y="825" font-family="Arial" font-size="28" fill="#fff">24/7 RESPONSE</text><text x="560" y="825" font-family="Arial" font-size="28" fill="#fff">LICENSED TEAM</text><text x="930" y="825" font-family="Arial" font-size="28" fill="#fff">LOCAL EXPERTS</text></svg>